<svg xmlns="http://www.w3.org/2000/svg" xmlns:xlink="http://www.w3.org/1999/xlink" version="1.1" id="Layer_1" x="0px" y="0px" width="100%" viewBox="0 0 200 200" xml:space="preserve">
<path fill="#732ED8" opacity="1.000000" stroke="none" d=" M147.034241,150.000000   C151.691162,150.000000 155.854340,149.993866 160.017471,150.001251   C169.126648,150.017395 174.989487,155.975220 174.999329,165.222107   C175.003571,169.213303 175.000046,173.204483 175.000046,177.597412   C158.452133,177.597412 142.076736,177.597412 124.636292,177.597412   C125.097847,171.841904 124.605675,165.735641 126.240440,160.264954   C129.205078,150.343887 137.643021,149.257660 147.034241,150.000000  z"/>
    <path fill="#732ED8" opacity="1.000000" stroke="none" d=" M76.907379,176.693756   C76.108643,177.439484 75.375534,177.949234 74.640938,177.951385   C59.032642,177.997314 43.424183,177.986191 27.003761,177.986191   C27.547501,170.158722 24.707386,161.922256 31.051826,155.486267   C33.550835,152.951187 37.313038,150.618652 40.725670,150.242828   C47.946335,149.447632 55.315506,149.980270 62.623638,150.005478   C70.700951,150.033340 76.955940,156.245392 76.994896,164.262817   C77.014267,168.248856 76.981499,172.235184 76.907379,176.693756  M57.107895,157.043213   C52.476723,161.384995 47.845551,165.726791 42.784100,170.471970   C50.618671,171.432068 56.851608,167.195312 63.453259,157.011368   C61.476482,157.011368 59.687332,157.011368 57.107895,157.043213  M36.474159,160.013672   C35.417633,162.647034 34.361107,165.280411 33.304577,167.913773   C33.571312,167.937698 33.838047,167.961624 34.104782,167.985550   C37.752762,164.367188 41.400738,160.748825 45.048717,157.130463   C44.990108,156.832947 44.931503,156.535416 44.872894,156.237900   C42.256393,157.311966 39.639893,158.386032 36.474159,160.013672  M66.505028,164.996216   C64.755310,166.757309 63.005589,168.518402 60.805717,170.732574   C64.467735,170.732574 67.045441,170.732574 69.614273,170.732574   C69.614273,167.837692 69.614273,165.216339 69.614273,162.062225   C68.422714,163.172577 67.714447,163.832581 66.505028,164.996216  z"/>
    <path fill="#732ED8" opacity="1.000000" stroke="none" d=" M100.006599,54.000000   C104.168564,54.000004 107.849205,54.214149 111.496315,53.955505   C119.124298,53.414551 125.219627,60.819153 125.902283,67.389938   C126.379730,71.985558 125.994362,76.670815 125.994362,81.655319   C109.327171,81.655319 92.947044,81.655319 75.638977,81.655319   C76.078407,75.689644 75.959396,69.734238 77.093559,64.027908   C78.238136,58.269264 84.204193,53.296097 91.017220,53.955051   C93.823372,54.226463 96.677681,54.000004 100.006599,54.000000  M104.431526,61.005936   C101.280685,61.005878 98.129852,61.006836 94.979012,61.005569   C84.903221,61.001530 81.941902,64.501587 83.540314,74.738228   C95.204765,74.738228 106.896210,74.738228 119.210152,74.738228   C118.904335,71.897041 118.997375,69.246460 118.286942,66.832329   C116.300621,60.082596 110.631729,60.906586 104.431526,61.005936  z"/>
    <path fill="#732ED8" opacity="1.000000" stroke="none" d=" M41.116978,137.602859   C37.731590,131.587051 37.462952,125.557785 42.237286,121.112885   C45.084690,118.461945 49.848686,116.610382 53.744125,116.622612   C60.565208,116.644028 64.351212,121.619225 65.911072,128.026428   C66.992676,132.469177 63.974194,138.663528 59.858952,141.034027   C54.680798,144.016785 47.837543,143.887009 44.198631,140.693588   C43.204037,139.820770 42.310806,138.832428 41.116978,137.602859  z"/>
    <path fill="#732ED8" opacity="1.000000" stroke="none" d=" M141.288910,139.782196   C135.580582,133.871078 135.491974,124.790367 140.819290,119.722374   C145.384460,115.379433 154.456604,115.321320 159.127594,119.625923   C165.052444,125.086044 165.472778,132.654373 160.913696,138.487381   C156.521774,144.106506 147.239975,144.697495 141.288910,139.782196  z"/>
    <path fill="#732ED8" opacity="1.000000" stroke="none" d=" M93.178757,47.042343   C87.449425,43.060112 87.188362,37.330925 88.279259,31.813957   C89.391373,26.189720 93.875244,23.348679 99.395248,22.275307   C105.305542,21.126041 113.342720,27.074278 113.992874,33.067314   C115.022247,42.555984 110.507309,48.991993 102.494576,48.903858   C99.511322,48.871044 96.539963,47.756783 93.178757,47.042343  M98.973793,41.939651   C99.801514,41.958996 100.838051,42.306805 101.418762,41.937618   C103.351196,40.709080 106.232109,39.497513 106.659935,37.763817   C107.155319,35.756336 105.965607,32.785191 104.546532,30.993446   C102.819351,28.812664 100.164124,28.929132 97.633202,30.657888   C93.888008,33.216064 94.037941,37.560131 98.973793,41.939651  z"/>
    <path fill="#7430D6" opacity="1.000000" stroke="none" d=" M70.758469,116.260727   C69.635216,115.062866 68.765228,114.120720 67.860359,113.140793   C73.421303,107.816330 78.765007,102.699883 84.477272,97.230537   C85.538452,98.573387 87.014793,100.441589 89.126945,103.114380   C84.608955,107.400589 79.663780,112.216270 74.518074,116.807175   C73.915451,117.344826 72.207359,116.643433 70.758469,116.260727  z"/>
    <path fill="#732ED8" opacity="1.000000" stroke="none" d=" M70.752975,101.748199   C68.324059,104.270103 66.144653,106.541870 63.993526,108.784172   C57.591908,103.912910 57.593342,103.914345 62.934734,98.569206   C65.981537,95.520271 69.089539,92.528656 72.043846,89.392410   C74.145050,87.161797 76.062759,87.787727 77.257317,89.937347   C77.982651,91.242584 78.291458,93.674576 77.548729,94.722343   C75.753365,97.255051 73.231483,99.272758 70.752975,101.748199  z"/>
    <path fill="#732ED8" opacity="1.000000" stroke="none" d=" M120.242996,109.755783   C117.552681,107.257309 115.112312,105.008942 111.872070,102.023621   C114.299759,100.379868 116.189392,99.100418 118.106972,97.802055   C122.912254,102.625252 128.301712,108.034813 133.926819,113.680885   C132.459534,115.147102 130.967819,116.637726 128.776993,118.826965   C125.878319,115.740379 123.185623,112.873131 120.242996,109.755783  z"/>
    <path fill="#732ED8" opacity="1.000000" stroke="none" d=" M140.808441,106.692276   C139.973358,107.516869 139.375214,108.087418 138.348221,109.067055   C133.629105,104.274139 128.866562,99.551132 124.239120,94.699257   C120.873215,91.170105 125.183533,90.116028 126.772514,87.373856   C132.123795,92.699692 137.287201,97.728821 142.229034,102.966995   C142.620804,103.382248 141.476059,105.247078 140.808441,106.692276  z"/>
    <path fill="#732ED8" opacity="1.000000" stroke="none" d=" M91.368469,139.921783   C90.500549,137.857925 90.097298,135.848892 89.601006,133.376343   C97.209831,133.376343 104.259346,133.376343 111.656471,133.376343   C111.656471,135.343185 111.656471,137.386749 111.656471,139.976593   C105.038025,139.976593 98.435570,139.976593 91.368469,139.921783  z"/>
    <path fill="#732ED8" opacity="1.000000" stroke="none" d=" M111.996460,149.035706   C111.111900,150.664185 110.271736,152.792725 109.331726,152.837784   C103.063629,153.138168 96.774208,152.993637 90.252197,152.993637   C90.252197,150.609436 90.252197,148.671448 90.252197,146.051239   C96.904778,146.051239 103.657005,145.992752 110.403625,146.160355   C110.953598,146.174026 111.465225,147.731720 111.996460,149.035706  z"/>
</svg>