<?xml version="1.0" standalone="no"?>
<!DOCTYPE svg PUBLIC "-//W3C//DTD SVG 20010904//EN">
<svg version="1.0" xmlns="http://www.w3.org/2000/svg"
 width="700.000000pt" height="700.000000pt" viewBox="0 0 700.000000 700.000000"
 preserveAspectRatio="xMidYMid meet">
<metadata>
Created by potrace 1.14, written by Peter Selinger 2001-2017
</metadata>
<g transform="translate(0.000000,700.000000) scale(0.100000,-0.100000)"
fill="#000000" stroke="none">
<path d="M3490 6223 c-130 -20 -275 -100 -333 -185 -58 -84 -77 -155 -82 -302
-5 -140 41 -254 134 -338 46 -41 59 -47 168 -73 249 -60 381 -40 493 75 60 61
96 135 117 240 7 35 6 198 -2 230 -30 136 -186 289 -345 338 -41 13 -114 20
-150 15z m127 -273 c88 -53 147 -233 99 -301 -34 -49 -160 -119 -214 -119 -35
0 -45 6 -85 50 -131 146 -116 289 38 368 52 27 120 28 162 2z"/>
<path d="M3090 5109 c-82 -11 -163 -45 -222 -92 -67 -53 -91 -80 -127 -147
-51 -95 -68 -210 -86 -597 l-7 -133 881 0 881 1 1 107 c5 411 0 456 -67 582
-66 126 -168 218 -286 260 -65 23 -38 22 -516 20 -211 0 -386 1 -390 3 -4 2
-32 0 -62 -4z m850 -253 c88 -21 145 -69 183 -156 26 -59 33 -98 42 -230 l6
-86 -623 1 -623 0 -7 40 c-3 22 -5 83 -4 135 5 201 87 277 326 302 63 7 669 1
700 -6z"/>
<path d="M4373 3871 c-69 -74 -80 -105 -54 -147 22 -36 510 -534 523 -534 16
0 86 76 107 116 44 86 59 62 -238 362 -148 150 -271 271 -273 271 -2 -1 -31
-31 -65 -68z"/>
<path d="M2570 3907 c-31 -17 -468 -455 -486 -488 -31 -57 -12 -94 91 -178
l60 -49 228 229 c125 126 236 244 247 261 35 58 21 145 -34 203 -36 38 -65 44
-106 22z"/>
<path d="M2929 3573 c-17 -19 -346 -335 -471 -453 -43 -40 -78 -76 -78 -79 0
-3 22 -30 49 -58 39 -42 59 -55 102 -67 56 -14 76 -9 115 28 6 6 64 61 129
121 140 130 176 165 273 257 l72 70 -37 47 c-21 25 -40 48 -43 51 -3 3 -21 26
-40 52 -39 52 -48 56 -71 31z"/>
<path d="M4041 3514 c-137 -92 -134 -80 -49 -155 87 -77 324 -312 431 -427 43
-46 82 -82 87 -80 14 5 170 158 170 167 0 5 -123 132 -273 283 l-272 275 -94
-63z"/>
<path d="M5171 2919 c-147 -19 -270 -106 -330 -233 -73 -152 -62 -322 30 -478
83 -141 217 -212 399 -212 111 1 133 5 218 45 201 93 304 364 219 576 -49 120
-158 233 -265 273 -82 31 -178 41 -271 29z"/>
<path d="M1819 2916 c-2 -2 -20 -7 -39 -10 -103 -16 -239 -85 -311 -157 -113
-115 -144 -251 -93 -419 26 -87 58 -140 124 -208 101 -103 198 -139 349 -129
181 12 314 90 398 232 66 111 82 231 47 339 -74 226 -202 341 -392 351 -44 2
-81 3 -83 1z"/>
<path d="M3277 2332 l-139 -3 7 -42 c4 -23 17 -73 29 -112 l22 -70 357 -3 357
-3 0 116 0 115 -202 1 c-112 0 -223 1 -248 2 -25 1 -107 1 -183 -1z"/>
<path d="M3159 1866 c0 -14 0 -53 0 -86 0 -33 0 -77 0 -98 l1 -38 335 1 c249
2 338 5 349 14 8 7 28 36 45 66 27 47 29 56 19 89 -24 76 -4 72 -397 75 l-351
2 -1 -25z"/>
<path d="M1588 1755 c-2 -1 -43 -5 -93 -9 -110 -7 -151 -18 -236 -62 -173 -91
-277 -226 -309 -403 -9 -51 -9 -328 0 -503 0 -5 377 -8 838 -8 817 0 838 1
870 20 25 15 32 27 33 52 4 168 3 425 -3 473 -26 226 -213 409 -440 431 -54 5
-655 13 -660 9z m-204 -446 c-165 -165 -214 -207 -214 -183 0 5 43 120 60 159
5 11 18 42 29 68 20 47 23 50 128 98 176 82 177 82 182 61 2 -9 -75 -93 -185
-203z m816 166 c-55 -86 -114 -159 -195 -240 -144 -142 -248 -193 -415 -202
l-95 -5 65 63 c67 63 295 278 385 360 58 54 60 55 182 54 l92 0 -19 -30z m236
-302 l-1 -148 -153 0 -153 0 149 147 c81 82 151 148 153 148 3 0 5 -66 5 -147z"/>
<path d="M4863 1748 c-184 -19 -320 -104 -401 -250 -27 -48 -61 -158 -68 -222
-4 -28 -8 -54 -10 -57 -2 -3 -6 -80 -9 -170 -3 -90 -8 -185 -10 -211 -4 -38
-2 -47 13 -51 9 -2 406 -4 882 -3 l865 1 0 239 c0 269 -10 354 -55 452 -37 83
-132 179 -214 217 -104 49 -155 56 -460 57 -154 1 -321 3 -371 4 -49 1 -122
-2 -162 -6z"/>
</g>
</svg>
